<?xml version="1.0" encoding="UTF-8" standalone="no"?>
<!-- Created with Inkscape (http://www.inkscape.org/) -->

<svg
   xmlns:dc="http://purl.org/dc/elements/1.1/"
   xmlns:cc="http://creativecommons.org/ns#"
   xmlns:rdf="http://www.w3.org/1999/02/22-rdf-syntax-ns#"
   xmlns:svg="http://www.w3.org/2000/svg"
   xmlns="http://www.w3.org/2000/svg"
   xmlns:sodipodi="http://sodipodi.sourceforge.net/DTD/sodipodi-0.dtd"
   xmlns:inkscape="http://www.inkscape.org/namespaces/inkscape"
   width="128"
   height="128"
   viewBox="0 0 33.866666 33.866668"
   version="1.1"
   id="svg4543"
   sodipodi:docname="arrow-up.svg"
   inkscape:version="0.92.1 r">
  <defs
     id="defs4537" />
  <sodipodi:namedview
     id="base"
     pagecolor="#ffffff"
     bordercolor="#666666"
     borderopacity="1.0"
     inkscape:pageopacity="0.0"
     inkscape:pageshadow="2"
     inkscape:zoom="1.979899"
     inkscape:cx="23.18258"
     inkscape:cy="71.938056"
     inkscape:document-units="mm"
     inkscape:current-layer="layer1"
     showgrid="false"
     units="px"
     showborder="true"
     inkscape:window-width="1366"
     inkscape:window-height="708"
     inkscape:window-x="0"
     inkscape:window-y="34"
     inkscape:window-maximized="1" />
  <metadata
     id="metadata4540">
    <rdf:RDF>
      <cc:Work
         rdf:about="">
        <dc:format>image/svg+xml</dc:format>
        <dc:type
           rdf:resource="http://purl.org/dc/dcmitype/StillImage" />
        <dc:title></dc:title>
      </cc:Work>
    </rdf:RDF>
  </metadata>
  <g
     inkscape:label="Layer 1"
     inkscape:groupmode="layer"
     id="layer1"
     transform="translate(0,-263.13332)">
    <path
       style="fill:#2980b9;fill-opacity:1;stroke-width:0.13976271"
       d="m 17.683163,264.01933 c 0.639141,0.1705 1.145546,0.64555 8.220114,7.71117 4.146456,4.14121 7.635566,7.71147 7.753581,7.93391 0.288929,0.5446 0.277261,1.88001 -0.0215,2.4577 -0.315399,0.60992 -2.256782,2.55909 -2.85183,2.86327 -0.623384,0.31867 -1.920559,0.31914 -2.545437,10e-4 -0.260876,-0.13291 -1.968033,-1.72435 -3.793683,-3.5366 l -3.319362,-3.295 -0.0032,7.89015 c -0.0026,7.38172 -0.01976,7.92617 -0.2619,8.4492 -0.317175,0.68506 -0.893344,1.24214 -1.582398,1.52998 -0.731708,0.30565 -3.959322,0.30565 -4.69103,0 -0.689053,-0.28784 -1.265223,-0.84492 -1.582398,-1.52998 -0.242244,-0.52323 -0.259026,-1.06949 -0.2619,-8.52448 l -0.0032,-7.96543 -3.4591291,3.44331 c -1.9025193,1.89382 -3.6082555,3.51914 -3.7905184,3.61182 -0.4957819,0.2521 -1.8546033,0.2096 -2.4088343,-0.0754 -0.695368,-0.35748 -2.60452297,-2.31932 -2.86770697,-2.94682 -0.282311,-0.6731 -0.284154,-1.84766 -0.0037,-2.37729 0.116444,-0.21993 3.62796897,-3.80582 7.80338757,-7.96865 6.3994492,-6.38016 7.6684862,-7.58349 8.0808332,-7.66244 0.269042,-0.0515 0.583512,-0.1156 0.698815,-0.14239 0.115304,-0.0268 0.516135,0.033 0.89074,0.13296 z"
       id="path4524"
       inkscape:connector-curvature="0" />
  </g>
</svg>
