<?xml version="1.0" encoding="UTF-8" standalone="no"?>
<!-- Created with Inkscape (http://www.inkscape.org/) -->

<svg
   xmlns:dc="http://purl.org/dc/elements/1.1/"
   xmlns:cc="http://creativecommons.org/ns#"
   xmlns:rdf="http://www.w3.org/1999/02/22-rdf-syntax-ns#"
   xmlns:svg="http://www.w3.org/2000/svg"
   xmlns="http://www.w3.org/2000/svg"
   xmlns:sodipodi="http://sodipodi.sourceforge.net/DTD/sodipodi-0.dtd"
   xmlns:inkscape="http://www.inkscape.org/namespaces/inkscape"
   width="128"
   height="128"
   viewBox="0 0 33.866666 33.866668"
   version="1.1"
   id="svg4543"
   sodipodi:docname="volume-up.svg"
   inkscape:version="0.92.1 r">
  <defs
     id="defs4537" />
  <sodipodi:namedview
     id="base"
     pagecolor="#ffffff"
     bordercolor="#666666"
     borderopacity="1.0"
     inkscape:pageopacity="0.0"
     inkscape:pageshadow="2"
     inkscape:zoom="1.979899"
     inkscape:cx="23.18258"
     inkscape:cy="71.938056"
     inkscape:document-units="mm"
     inkscape:current-layer="layer1"
     showgrid="false"
     units="px"
     showborder="true"
     inkscape:window-width="1366"
     inkscape:window-height="708"
     inkscape:window-x="0"
     inkscape:window-y="34"
     inkscape:window-maximized="1" />
  <metadata
     id="metadata4540">
    <rdf:RDF>
      <cc:Work
         rdf:about="">
        <dc:format>image/svg+xml</dc:format>
        <dc:type
           rdf:resource="http://purl.org/dc/dcmitype/StillImage" />
        <dc:title></dc:title>
      </cc:Work>
    </rdf:RDF>
  </metadata>
  <g
     inkscape:label="Layer 1"
     inkscape:groupmode="layer"
     id="layer1"
     transform="translate(0,-263.13332)">
    <path
       style="fill:#2980b9;fill-opacity:1;stroke-width:0.13061357"
       d="m 23.314523,294.38601 c -0.179594,-0.0893 -0.434233,-0.38232 -0.565865,-0.65113 -0.232032,-0.47387 -0.232032,-0.50349 0,-0.97111 0.194064,-0.3911 0.459025,-0.59711 1.400889,-1.08922 7.94031,-4.14868 9.569143,-14.56222 3.262574,-20.85846 -1.10311,-1.1013 -2.22524,-1.90506 -3.682546,-2.63775 -0.962078,-0.48371 -1.303842,-1.02272 -1.058171,-1.66888 0.38724,-1.01852 1.047187,-1.16271 2.394055,-0.52309 3.059966,1.45317 5.606793,4.00472 7.197204,7.21054 3.767618,7.59449 0.673842,16.86917 -6.932701,20.78322 -1.175365,0.6048 -1.488565,0.66788 -2.015439,0.40588 z m -9.404178,-2.00867 c -0.107756,-0.0408 -1.782875,-1.65238 -3.722486,-3.58132 l -3.5265672,-3.50718 -2.968754,-0.0377 -2.96875498,-0.0377 -0.361892,-0.36215 L -1.7871803e-7,284.48914 v -4.43493 -4.43493 L 0.36188482,275.25713 l 0.361885,-0.36216 2.90345398,-0.0386 2.903454,-0.0385 3.4612605,-3.44748 c 1.9036927,-1.89611 3.6331047,-3.51221 3.8431367,-3.59134 0.504239,-0.18997 1.015898,-0.065 1.397657,0.34136 l 0.310283,0.33028 v 11.61112 11.61112 l -0.326534,0.32634 c -0.332644,0.33245 -0.952661,0.51197 -1.306136,0.3782 z m 7.043086,-3.0396 c -0.291064,-0.29106 -0.381793,-0.50248 -0.381793,-0.88967 0,-0.63222 0.236857,-0.89738 1.36531,-1.52845 1.718491,-0.96103 2.981169,-2.44493 3.703443,-4.35228 0.287141,-0.75827 0.334711,-1.09819 0.342576,-2.4479 0.0099,-1.70333 -0.124028,-2.28268 -0.875802,-3.7878 -0.509185,-1.01943 -2.103718,-2.60671 -3.190789,-3.17626 -0.967871,-0.5071 -1.344738,-0.94247 -1.344738,-1.55349 0,-0.32695 0.108584,-0.55816 0.398077,-0.84766 0.350021,-0.35002 0.465645,-0.39046 0.957784,-0.33498 1.094247,0.12333 3.380389,1.71535 4.397199,3.06211 2.716484,3.59795 3.04396,8.0426 0.872018,11.83544 -0.797496,1.39266 -2.607973,3.15085 -3.967445,3.85286 -1.283047,0.66255 -1.747101,0.69682 -2.27584,0.16808 z m -1.991992,-4.7178 c -0.394368,-0.3102 -0.577733,-1.04655 -0.372683,-1.49659 0.07687,-0.1687 0.501225,-0.5522 0.943014,-0.85221 0.918115,-0.62348 1.295358,-1.26913 1.295358,-2.21701 0,-0.93406 -0.379207,-1.59486 -1.257512,-2.19131 -0.911656,-0.61909 -1.154282,-1.00521 -1.034124,-1.64571 0.352875,-1.88098 3.243249,-0.84146 4.343681,1.5622 0.702205,1.53381 0.702627,3.03052 0.0013,4.53396 -0.888155,1.9039 -2.914682,3.09668 -3.919012,2.30667 z"
       id="path4526"
       inkscape:connector-curvature="0" />
  </g>
</svg>
