<svg version="1" xmlns="http://www.w3.org/2000/svg" width="889.333" height="889.333" viewBox="0 0 667.000000 667.000000"><path d="M305.5 110.7c-4.9.7-12.6 2-17 2.9-9.8 2-9.1 1.8-14.5 3.3-2.5.7-4.5 1.2-4.5 1.1 0-.3-15.1 5.1-16.9 6.1-1 .6-2.6 1.2-3.6 1.4-1.9.4-25.2 11.7-26 12.6-.3.4-2.3 1.5-4.5 2.7-3.6 1.8-21.8 14.5-25.1 17.5-.7.7-3.9 3.4-7 6.2-18 15.7-33.5 34.8-46.7 57.3-3 5.2-4.4 8.3-4.5 9.6 0 .5-.4 1.2-.9 1.5-3.2 2.2-14.9 34.6-17.8 49.1-.3 1.4-.8 3.6-1 5-.3 1.4-.8 3.7-1 5.2-.3 1.6-.7 4-1 5.5-2.7 15.5-2.7 56.9 0 66.3.3.8.7 3.1.9 5 .3 1.9.7 4.2.9 5 .2.8.7 3.3 1.1 5.5 1.3 6.6 6.7 24.9 7.8 26.2.6.7.8 1.3.5 1.3-1 0 4.2 11.9 10.9 25.3l4.4 8.8-3.2-.5c-1.8-.3-4.4-.8-5.8-1-1.4-.3-5.2-.8-8.5-1.1-3.3-.3-7.3-.8-9-1-9.3-1.2-24.6-1.8-44.7-1.9-21.9 0-22.9.1-25.7 2.2-1.7 1.2-3.2 2.2-3.5 2.2-.3 0-6.5 3.6-14 8-7.4 4.4-14 8-14.5 8-.6 0-1.1.4-1.1.9s-.8 1.1-1.7 1.4c-1 .3-3.1 1.4-4.8 2.4-1.7 1-3.1 1.8-3.2 1.9-.2 0 .9 3.9 2.3 8.5s2.7 8.8 2.8 9.4c.1.5 1 3.6 1.9 6.7 1 3.2 1.7 5.9 1.6 6-.2.2.3 1.4 1 2.7.7 1.3 1.5 3.8 1.8 5.5.3 1.7 1.1 4.3 1.9 5.8.8 1.5 1.4 3.1 1.4 3.5.1 1.3 2 8.7 3.1 11.4 1 2.6 1.7 2.8 4.9 1.6 4.9-1.9 32.6-8.2 40.5-9.2 2.2-.2 5.1-.7 6.5-1 2.5-.6 4.2-.8 14-2 3-.3 6.6-.8 8-1 19.3-3 66.6-2.4 92 1.1 2.5.3 5.5.8 6.8.9 15.4 2.1 18.6 3 26.7 8.1 6.4 4 23.5 12.7 30 15.2 2.8 1.1 7.3 2.9 10 4 2.8 1.1 6.4 2.3 8 2.7 1.7.5 3.5.9 4 1.1 5.2 1.5 16.4 4.6 18 4.8 1.1.2 4.8.9 8.3 1.4 3.5.6 7.8 2 9.7 3.2 3.2 2 3.3 2.2 2 4.6-.7 1.5-1.1 3.7-.9 5.1.5 2.4 5.4 10.6 5.4 9 0-.4 1.2 0 2.7 1 1.4.9 3.1 1.8 3.7 2 .6.1 2.5.5 4.1.9 3.4.8 14 .9 20.3.1 6-.7 14.4-5 16.5-8.6 2.1-3.6 2.2-8.4.2-10.1-.8-.7-1.2-1.6-.9-2.1.7-1.2 7.6-4.4 9.4-4.4.8 0 2-.3 2.5-.7.6-.3 3.5-.9 6.5-1.4 5.8-.8 6.8-1 7.3-1.4.1-.1.9-.3 1.9-.5 6.7-1.3 24-7 28.8-9.5.9-.4 3-1.1 4.8-1.5 1.8-.3 3.2-1.1 3.2-1.6s.5-.9 1.1-.9c1.6 0 15.3-7 23.1-11.7 7.4-4.5 9-5.2 14-5.8 1.8-.2 4.4-.6 5.8-1 3.4-.8 11-1.9 13.8-1.9 1.2-.1 2.2-.3 2.2-.6s1-.5 2.3-.6c1.2 0 6.3-.4 11.2-.9 5-.4 11-.9 13.5-1.1 6.6-.4 42.9-.4 47 0 1.9.2 7.6.7 12.5 1.1 5 .3 10.4.9 12 1.1 1.7.3 4.6.7 6.5.9 1.9.2 6.2.8 9.5 1.3 3.3.6 7.4 1.3 9 1.6 1.7.3 3.9.7 5 .9 1.1.3 4 .8 6.5 1.3 5.1.9 5.9 1.1 6.3 1.4.1.1 1.1.3 2.2.5s4 .9 6.5 1.5 5.2 1.3 6 1.5c.8.2 2.8.8 4.3 1.4 1.6.6 3 1.1 3.2 1.1.4 0 4.2-11.6 5-15 .2-.8.9-2.9 1.5-4.5.6-1.7 1.3-3.7 1.5-4.6.4-1.9 5.7-19.2 9.1-29.9 2.9-8.9 2.9-9.6.7-10.3-2.4-.8-7.7-4-8.1-5-.2-.4-.8-.7-1.4-.7-.6 0-6.2-3.2-12.5-7-6.3-3.9-11.7-7-12-7-.2 0-2.3-1.2-4.6-2.8l-4.2-2.7-21.5.1c-19.6.1-39.7.9-44.6 1.8-1 .2-5 .7-8.7 1.1-3.7.3-7.8.8-9 1.1-5.1 1-10.7 1.3-10.7.5 0-.5.8-1.9 1.8-3.2.9-1.3 3.5-6.2 5.6-10.9 2.1-4.7 4.3-9.3 4.8-10.4 2.2-4.3 9.1-26.5 9.8-31.6.4-3 1.1-6.6 1.4-8 .3-1.4.8-3.9 1.1-5.5.2-1.7.6-3.9.8-5 .3-1.1.8-4.9 1.2-8.5.4-3.6.9-7.9 1.1-9.5.6-4.3.6-36.6 0-39-.2-1.1-.7-4.9-1.1-8.5-.4-3.6-.9-7.4-1.2-8.5-.2-1.1-.6-2.9-.8-4-3.2-19.6-15.6-52.3-26.3-68.9-1.5-2.3-2.7-4.3-2.7-4.6 0-.3-.8-1.6-1.8-3s-3.9-5.5-6.5-9.1c-9.3-13.1-29-33.5-42.2-43.9-2.5-1.9-4.7-3.7-5-4.1-1-1.2-19-12.9-19.9-12.9-.5 0-1.1-.4-1.3-.9-1.1-2.9-45.9-22.4-53.8-23.3-1.4-.2-3.1-.7-3.7-1.1-.7-.5-1.3-.6-1.3-.3 0 .2-1.5 0-3.2-.5-1.8-.5-4.6-1.2-6.3-1.4-1.6-.3-3.7-.7-4.5-.8-.8-.2-3.7-.7-6.5-1.1-2.7-.4-6.3-1-8-1.3-6.5-1.1-44.2-.9-53 .4z"/></svg>